# xmcd CD database file
#
# Track frame offsets:
#	150
#	15040
#	27720
#	41145
#	61670
#	75760
#	95657
#	112020
#	129205
#	145712
#	163737
#	175397
#	194137
#	206117
#	223327
#	238052
#
# Disc length: 3421 seconds
#
# Revision: 0
# Processed by: cddbd v1.5.1PL0 Copyright (c) Steve Scherf et al.
# Submitted via: CDex 1.51
#
DISCID=e30d5b10
DTITLE=曽木亜古弥 - SNKキャラクターズサウンズコレクション vol.6 不知火舞
DYEAR=1900
DGENRE=ゲーム
TTITLE0=舞の覚え書き１（夏）
TTITLE1=SNK 新世界楽曲雑技団/龍炎神（餓狼伝説２ 1500 SERIES）
TTITLE2=SNK 新世界楽曲雑技団/龍炎神（餓狼伝説SPECIAL 1500 SERIES）
TTITLE3=SNK 新世界楽曲雑技団/龍炎神（餓狼伝説SPECIAL Image Alubm Part2）
TTITLE4=SNK 新世界楽曲雑技団/龍炎神（餓狼伝説SPECIAL Symphonic Sound Trax）
TTITLE5=舞の覚え書き２（春）
TTITLE6=SNK 新世界楽曲雑技団/イヴォンヌ・ルロールへの幻想よりピアノとハープによる浮遊　（餓狼伝説３ 1500 SERIES）
TTITLE7=SNK 新世界楽曲雑技団/イヴォンヌ・ルロールへの幻想よりピアノとハープによる浮遊　（餓狼伝説３ Arrange Sound Trax）
TTITLE8=SNK 新世界楽曲雑技団/イヴォンヌ・ルロールへの幻想よりピアノとハープによる浮遊　（REAL BOUT 餓狼伝説 1500 SERIES）
TTITLE9=舞の覚え書き３（冬）
TTITLE10=SNK 新世界楽曲雑技団/Get'n Up（THE KING OF FIGHTERS '96 1500 SERIES)
TTITLE11=SNK 新世界楽曲雑技団/Get'n Up（THE KING OF FIGHTERS '96 Arrange Sound Trax)
TTITLE12=SNK 新世界楽曲雑技団/まいまいきゅーん（REAL BOUT 餓狼伝説SPECIAL 1500 SERIES)
TTITLE13=Dear 舞 BOY（REAL BOUT 餓狼伝説SPECIAL Arrange Sound Trax
TTITLE14=舞の覚え書き（そして今）　（B.G.M. 龍炎神サイレントアレンジバージョン）
TTITLE15=Voice Collection
EXTD=
EXTT0=
EXTT1=
EXTT2=
EXTT3=
EXTT4=
EXTT5=
EXTT6=
EXTT7=
EXTT8=
EXTT9=
EXTT10=
EXTT11=
EXTT12=
EXTT13=
EXTT14=
EXTT15=
PLAYORDER=
